<svg xmlns="http://www.w3.org/2000/svg" viewBox="0 0 512 512">
  <rect width="512" height="512" rx="64" fill="#1EB53A"/>
  <rect width="512" height="171" rx="0" fill="#0099B5"/>
  <rect width="512" height="171" y="341" fill="#1EB53A"/>
  <rect width="512" height="170" y="171" fill="#FFF"/>
  <rect width="512" height="8" y="167" fill="#CE1126"/>
  <rect width="512" height="8" y="337" fill="#CE1126"/>
  <circle cx="160" cy="86" r="40" fill="#FFF"/>
  <circle cx="172" cy="86" r="34" fill="#0099B5"/>
  <g fill="#FFF">
    <circle cx="220" cy="50" r="8"/><circle cx="244" cy="50" r="8"/><circle cx="268" cy="50" r="8"/>
    <circle cx="220" cy="72" r="8"/><circle cx="244" cy="72" r="8"/><circle cx="268" cy="72" r="8"/><circle cx="292" cy="72" r="8"/>
    <circle cx="220" cy="94" r="8"/><circle cx="244" cy="94" r="8"/><circle cx="268" cy="94" r="8"/><circle cx="292" cy="94" r="8"/>
    <circle cx="244" cy="116" r="8"/><circle cx="268" cy="116" r="8"/><circle cx="292" cy="116" r="8"/>
  </g>
</svg>
